# Blender v2.78 (sub 0) OBJ File: ''
# www.blender.org
mtllib falloutVolume.mtl
o Cube_Cube.001
v -0.500000 -0.480000 0.480000
v -0.500000 0.480000 0.480000
v -0.480000 -0.480000 -0.500000
v -0.480000 0.480000 -0.500000
v 0.500000 -0.480000 0.480000
v 0.480000 0.500000 0.480000
v 0.480000 -0.480000 -0.500000
v 0.480000 0.480000 -0.500000
v -0.500000 0.480000 -0.480000
v -0.500000 -0.480000 -0.480000
v 0.500000 -0.480000 -0.480000
v 0.480000 0.500000 -0.480000
v -0.480000 -0.500000 -0.480000
v -0.480000 -0.480000 0.500000
v -0.480000 0.500000 0.480000
v -0.480000 0.500000 -0.480000
v -0.480000 0.480000 0.500000
v -0.500000 0.500000 -0.500000
v 0.500000 0.480000 -0.480000
v 0.500000 0.480000 0.480000
v 0.500000 0.500000 -0.500000
v 0.480000 -0.500000 -0.480000
v 0.480000 -0.480000 0.500000
v 0.480000 0.480000 0.500000
v -0.480000 -0.500000 0.480000
v -0.500000 0.500000 0.500000
v 0.500000 0.500000 0.500000
v 0.480000 -0.500000 0.480000
v -0.500000 -0.500000 -0.500000
v -0.500000 -0.500000 0.500000
v 0.500000 -0.500000 -0.500000
v 0.500000 -0.500000 0.500000
v -0.500000 -0.480000 0.480000
v -0.500000 0.480000 0.480000
v -0.480000 -0.480000 -0.500000
v -0.480000 0.480000 -0.500000
v 0.500000 -0.480000 0.480000
v 0.480000 0.500000 0.480000
v 0.480000 -0.480000 -0.500000
v 0.480000 0.480000 -0.500000
v -0.500000 0.480000 -0.480000
v -0.500000 -0.480000 -0.480000
v 0.500000 -0.480000 -0.480000
v 0.480000 0.500000 -0.480000
v -0.480000 -0.500000 -0.480000
v -0.480000 -0.480000 0.500000
v -0.480000 0.500000 0.480000
v -0.480000 0.500000 -0.480000
v -0.480000 0.480000 0.500000
v -0.500000 0.500000 -0.500000
v 0.500000 0.480000 -0.480000
v 0.500000 0.480000 0.480000
v 0.500000 0.500000 -0.500000
v 0.480000 -0.500000 -0.480000
v 0.480000 -0.480000 0.500000
v 0.480000 0.480000 0.500000
v -0.480000 -0.500000 0.480000
v -0.500000 0.500000 0.500000
v 0.500000 0.500000 0.500000
v 0.480000 -0.500000 0.480000
v -0.500000 -0.500000 -0.500000
v -0.500000 -0.500000 0.500000
v 0.500000 -0.500000 -0.500000
v 0.500000 -0.500000 0.500000
vn 0.0000 0.0000 -1.0000
vn -1.0000 0.0000 0.0000
vn 0.0000 1.0000 0.0000
vn 1.0000 0.0000 0.0000
vn 0.0000 0.0000 1.0000
vn 0.0000 -1.0000 0.0000
usemtl MatMain
s off
f 4//1 3//1 29//1 18//1
f 3//1 7//1 31//1 29//1
f 8//1 4//1 18//1 21//1
f 7//1 8//1 21//1 31//1
f 1//2 10//2 29//2 30//2
f 2//2 1//2 30//2 26//2
f 9//2 2//2 26//2 18//2
f 10//2 9//2 18//2 29//2
f 15//3 16//3 18//3 26//3
f 16//3 12//3 21//3 18//3
f 12//3 6//3 27//3 21//3
f 6//3 15//3 26//3 27//3
f 19//4 11//4 31//4 21//4
f 11//4 5//4 32//4 31//4
f 20//4 19//4 21//4 27//4
f 5//4 20//4 27//4 32//4
f 14//5 17//5 26//5 30//5
f 24//5 23//5 32//5 27//5
f 23//5 14//5 30//5 32//5
f 17//5 24//5 27//5 26//5
f 13//6 25//6 30//6 29//6
f 22//6 13//6 29//6 31//6
f 28//6 22//6 31//6 32//6
f 25//6 28//6 32//6 30//6
f 36//5 50//5 61//5 35//5
f 35//5 61//5 63//5 39//5
f 40//5 53//5 50//5 36//5
f 39//5 63//5 53//5 40//5
f 33//4 62//4 61//4 42//4
f 34//4 58//4 62//4 33//4
f 41//4 50//4 58//4 34//4
f 42//4 61//4 50//4 41//4
f 47//6 58//6 50//6 48//6
f 48//6 50//6 53//6 44//6
f 44//6 53//6 59//6 38//6
f 38//6 59//6 58//6 47//6
f 51//2 53//2 63//2 43//2
f 43//2 63//2 64//2 37//2
f 52//2 59//2 53//2 51//2
f 37//2 64//2 59//2 52//2
f 46//1 62//1 58//1 49//1
f 56//1 59//1 64//1 55//1
f 55//1 64//1 62//1 46//1
f 49//1 58//1 59//1 56//1
f 45//3 61//3 62//3 57//3
f 54//3 63//3 61//3 45//3
f 60//3 64//3 63//3 54//3
f 57//3 62//3 64//3 60//3
