# Blender v2.78 (sub 0) OBJ File: ''
# www.blender.org
mtllib falloutPlane.mtl
o Plane
v 1000.000000 -0.000163 1000.000000
v -1000.000000 0.000163 -1000.000000
v -1000.000000 -0.000163 1000.000000
v 1000.000000 0.000163 -1000.000000
v 1000.000000 -0.000163 1000.000000
v -1000.000000 0.000163 -1000.000000
v -1000.000000 -0.000163 1000.000000
v 1000.000000 0.000163 -1000.000000
vt 1000.8002 -998.8002
vt -998.8002 1000.8002
vt -998.8000 -998.8002
vt 1000.8002 1000.8002
vt 1000.8002 -998.8002
vt -998.8000 -998.8002
vt -998.8002 1000.8002
vt 1000.8002 1000.8002
vn 0.0000 1.0000 0.0000
vn 0.0000 -1.0000 -0.0000
usemtl FalloutGrid
s 1
f 1/1/1 2/2/1 3/3/1
f 1/1/1 4/4/1 2/2/1
f 5/5/2 7/6/2 6/7/2
f 5/5/2 6/7/2 8/8/2
