# Blender v2.77 (sub 0) OBJ File: ''
# www.blender.org
o Sphere
v -0.172233 0.327767 -2.251456
v 0.000000 0.500000 -2.738605
v 0.172233 0.327767 -2.251456
v 0.172233 0.672233 -2.251456
v -0.172233 0.672233 -2.251456
v -0.060052 0.560052 -2.302209
v -0.060052 0.439948 -1.739825
v -0.060052 0.560052 -1.739825
v 0.060052 0.560052 -1.739825
v 0.060052 0.439948 -2.302209
v 0.060052 0.560052 -2.302209
v -0.060052 0.439948 -2.302209
v 0.060052 0.439948 -1.739825
vn 0.0000 -0.9428 -0.3333
vn 0.9428 0.0000 -0.3333
vn 0.0000 0.9428 -0.3333
vn -0.9428 0.0000 -0.3333
vn 0.0000 0.0000 1.0000
vn -1.0000 0.0000 0.0000
vn 1.0000 0.0000 0.0000
vn 0.0000 -1.0000 -0.0000
vn 0.0000 1.0000 0.0000
s 1
f 1//1 2//1 3//1
f 3//2 2//2 4//2
f 4//3 2//3 5//3
f 5//4 2//4 1//4
f 3//5 5//5 1//5
f 6//6 7//6 8//6
f 9//7 10//7 11//7
f 12//8 13//8 7//8
f 11//9 8//9 9//9
f 3//5 4//5 5//5
f 6//6 12//6 7//6
f 9//7 13//7 10//7
f 12//8 10//8 13//8
f 11//9 6//9 8//9
o mb_jamabar
v -0.500061 0.299963 0.675009
v -0.500061 0.299964 -0.675131
v 0.500061 0.299963 0.675009
v 0.500061 0.299964 -0.675131
v -0.500061 0.700037 -0.675131
v -0.500061 0.700036 0.675009
v 0.500061 0.700037 -0.675131
v 0.500061 0.700036 0.675009
v 0.500061 0.700036 0.675009
v 0.500061 0.299963 0.675009
v 0.500061 0.700037 -0.675131
v 0.500061 0.299964 -0.675131
v -0.500061 0.700037 -0.675131
v -0.500061 0.299964 -0.675131
v -0.500061 0.700036 0.675009
v -0.500061 0.299963 0.675009
v -0.500061 1.000122 -0.675009
v -0.500061 0.000000 -0.675009
v 0.500061 1.000122 -0.675009
v 0.500061 0.000000 -0.675009
v -0.500061 1.000122 0.675009
v 0.500061 1.000122 0.675009
v -0.500061 -0.000000 0.675009
v 0.500061 -0.000000 0.675009
v -0.500061 -0.000000 0.850079
v -0.500061 1.000122 0.850080
v -0.500061 -0.000000 0.675009
v -0.500061 1.000122 0.675009
v 0.500061 1.000122 0.850080
v 0.500061 -0.000000 0.850079
v 0.500061 1.000122 0.675009
v 0.500061 -0.000000 0.675009
v 0.500061 1.000122 -0.675009
v 0.500061 1.000122 -0.850079
v -0.500061 1.000122 -0.675009
v -0.500061 1.000122 -0.850079
v 0.500061 0.000000 -0.850079
v 0.500061 1.000122 -0.850079
v 0.500061 0.000000 -0.675009
v 0.500061 1.000122 -0.675009
v -0.500061 1.000122 0.675009
v -0.500061 1.000122 0.850080
v 0.500061 1.000122 0.675009
v 0.500061 1.000122 0.850080
v 0.500061 -0.000000 0.675009
v 0.500061 -0.000000 0.850079
v -0.500061 -0.000000 0.675009
v -0.500061 -0.000000 0.850079
v -0.500061 1.000122 -0.850079
v -0.500061 0.000000 -0.850079
v -0.500061 1.000122 -0.675009
v -0.500061 0.000000 -0.675009
v -0.500061 0.000000 -0.675009
v -0.500061 0.000000 -0.850079
v 0.500061 0.000000 -0.675009
v 0.500061 0.000000 -0.850079
v 0.500061 -0.000000 0.850079
v 0.500061 1.000122 0.850080
v 0.500061 -0.000000 1.750214
v 0.500061 1.000122 1.750214
v -0.500061 -0.000000 0.850079
v 0.500061 -0.000000 0.850079
v -0.500061 -0.000000 1.750214
v 0.500061 -0.000000 1.750214
v 0.500061 1.000122 0.850080
v -0.500061 1.000122 0.850080
v 0.500061 1.000122 1.750214
v -0.500061 1.000122 1.750214
v -0.500061 1.000122 0.850080
v -0.500061 -0.000000 0.850079
v -0.500061 1.000122 1.750214
v -0.500061 -0.000000 1.750214
v -0.500061 0.000000 -0.850079
v -0.500061 1.000122 -0.850079
v -0.500061 0.000000 -1.750214
v -0.500061 1.000122 -1.750214
v 0.500061 1.000122 -0.850079
v 0.500061 0.000000 -0.850079
v 0.500061 1.000122 -1.750214
v 0.500061 0.000000 -1.750214
v -0.500061 1.000122 -0.850079
v 0.500061 1.000122 -0.850079
v -0.500061 1.000122 -1.750214
v 0.500061 1.000122 -1.750214
v 0.500061 0.000000 -0.850079
v -0.500061 0.000000 -0.850079
v 0.500061 0.000000 -1.750214
v -0.500061 0.000000 -1.750214
v 0.500061 0.000000 -1.750214
v -0.500061 0.000000 -1.750214
v 0.500061 1.000122 -1.750214
v -0.500061 1.000122 -1.750214
v -0.500061 -0.000000 1.750214
v 0.500061 -0.000000 1.750214
v -0.500061 1.000122 1.750214
v 0.500061 1.000122 1.750214
vt 0.0000 0.0000
vt 1.0000 0.0000
vt 1.0000 1.0000
vt 0.0000 0.0000
vt 1.0000 1.0000
vt 0.0000 0.0000
vt 1.0000 0.0000
vt 1.0000 1.0000
vt 0.0000 0.0000
vt 1.0000 1.0000
vt 0.0000 0.0000
vt 1.0000 0.0000
vt 1.0000 1.0000
vt 0.0000 0.0000
vt 1.0000 1.0000
vt 0.0000 0.0000
vt 1.0000 0.0000
vt 1.0000 1.0000
vt 0.0000 0.0000
vt 1.0000 1.0000
vt 0.0000 0.0000
vt 1.0000 0.0000
vt 1.0000 1.0000
vt 0.0000 0.0000
vt 1.0000 1.0000
vt 0.0000 0.0000
vt 1.0000 0.0000
vt 1.0000 1.0000
vt 0.0000 0.0000
vt 1.0000 1.0000
vt 0.0000 0.0000
vt 1.0000 0.0000
vt 1.0000 1.0000
vt 0.0000 0.0000
vt 1.0000 1.0000
vt 0.0000 0.0000
vt 1.0000 0.0000
vt 1.0000 1.0000
vt 0.0000 0.0000
vt 1.0000 1.0000
vt 0.0000 0.0000
vt 1.0000 0.0000
vt 1.0000 1.0000
vt 0.0000 0.0000
vt 1.0000 1.0000
vt 0.0000 0.0000
vt 1.0000 0.0000
vt 1.0000 1.0000
vt 0.0000 0.0000
vt 1.0000 1.0000
vt 0.0000 0.0000
vt 1.0000 0.0000
vt 1.0000 1.0000
vt 0.0000 0.0000
vt 1.0000 1.0000
vt 0.0000 0.0000
vt 1.0000 0.0000
vt 1.0000 1.0000
vt 0.0000 0.0000
vt 1.0000 1.0000
vt 0.0000 0.0000
vt 1.0000 0.0000
vt 1.0000 1.0000
vt 0.0000 0.0000
vt 1.0000 1.0000
vt 0.0000 0.0000
vt 1.0000 0.0000
vt 1.0000 1.0000
vt 0.0000 0.0000
vt 1.0000 1.0000
vt 0.0000 0.0000
vt 1.0000 0.0000
vt 1.0000 1.0000
vt 0.0000 0.0000
vt 1.0000 1.0000
vt 0.0000 0.0000
vt 1.0000 0.0000
vt 1.0000 1.0000
vt 0.0000 0.0000
vt 1.0000 1.0000
vt 0.0000 0.0000
vt 1.0000 0.0000
vt 1.0000 1.0000
vt 0.0000 0.0000
vt 1.0000 1.0000
vt 0.0000 0.0000
vt 1.0000 0.0000
vt 1.0000 1.0000
vt 0.0000 0.0000
vt 1.0000 1.0000
vt 0.0000 0.0000
vt 1.0000 0.0000
vt 1.0000 1.0000
vt 0.0000 0.0000
vt 1.0000 1.0000
vt 0.0000 0.0000
vt 1.0000 0.0000
vt 1.0000 1.0000
vt 0.0000 0.0000
vt 1.0000 1.0000
vt 0.0000 0.0000
vt 1.0000 0.0000
vt 1.0000 1.0000
vt 0.0000 0.0000
vt 1.0000 1.0000
vt 0.0000 0.0000
vt 1.0000 0.0000
vt 1.0000 1.0000
vt 0.0000 0.0000
vt 1.0000 1.0000
vt 0.0000 0.0000
vt 1.0000 0.0000
vt 1.0000 1.0000
vt 0.0000 0.0000
vt 1.0000 1.0000
vt 0.0000 0.0000
vt 1.0000 0.0000
vt 1.0000 1.0000
vt 0.0000 0.0000
vt 1.0000 1.0000
vn 0.0000 -1.0000 -0.0000
vn 0.0000 1.0000 0.0000
vn 1.0000 0.0000 0.0000
vn -1.0000 -0.0000 0.0000
vn 0.0000 -0.0000 1.0000
vn 0.0000 0.0000 -1.0000
s 1
f 14/1/10 15/2/10 16/3/10
f 16/4/10 15/2/10 17/5/10
f 18/6/11 19/7/11 20/8/11
f 20/9/11 19/7/11 21/10/11
f 22/11/12 23/12/12 24/13/12
f 24/14/12 23/12/12 25/15/12
f 26/16/13 27/17/13 28/18/13
f 28/19/13 27/17/13 29/20/13
f 30/21/14 31/22/14 32/23/14
f 32/24/14 31/22/14 33/25/14
f 34/26/15 35/27/15 36/28/15
f 36/29/15 35/27/15 37/30/15
f 38/31/13 39/32/13 40/33/13
f 40/34/13 39/32/13 41/35/13
f 42/36/12 43/37/12 44/38/12
f 44/39/12 43/37/12 45/40/12
f 46/41/11 47/42/11 48/43/11
f 48/44/11 47/42/11 49/45/11
f 50/46/12 51/47/12 52/48/12
f 52/49/12 51/47/12 53/50/12
f 54/51/11 55/52/11 56/53/11
f 56/54/11 55/52/11 57/55/11
f 58/56/10 59/57/10 60/58/10
f 60/59/10 59/57/10 61/60/10
f 62/61/13 63/62/13 64/63/13
f 64/64/13 63/62/13 65/65/13
f 66/66/10 67/67/10 68/68/10
f 68/69/10 67/67/10 69/70/10
f 70/71/12 71/72/12 72/73/12
f 72/74/12 71/72/12 73/75/12
f 74/76/10 75/77/10 76/78/10
f 76/79/10 75/77/10 77/80/10
f 78/81/11 79/82/11 80/83/11
f 80/84/11 79/82/11 81/85/11
f 82/86/13 83/87/13 84/88/13
f 84/89/13 83/87/13 85/90/13
f 86/91/13 87/92/13 88/93/13
f 88/94/13 87/92/13 89/95/13
f 90/96/12 91/97/12 92/98/12
f 92/99/12 91/97/12 93/100/12
f 94/101/11 95/102/11 96/103/11
f 96/104/11 95/102/11 97/105/11
f 98/106/10 99/107/10 100/108/10
f 100/109/10 99/107/10 101/110/10
f 102/111/15 103/112/15 104/113/15
f 104/114/15 103/112/15 105/115/15
f 106/116/14 107/117/14 108/118/14
f 108/119/14 107/117/14 109/120/14
